<?xml version="1.0" encoding="utf-8"?>
<!-- Generator: Adobe Illustrator 19.2.1, SVG Export Plug-In . SVG Version: 6.00 Build 0)  -->
<svg version="1.1" id="layer" xmlns="http://www.w3.org/2000/svg" xmlns:xlink="http://www.w3.org/1999/xlink" x="0px" y="0px"
	 viewBox="0 0 652 652" style="enable-background:new 0 0 652 652;" xml:space="preserve">
<g>
	<path d="M371.1,392.6l-55.8-132.9h-29.4l-56,133h29.6l40.9-97.9l41.2,97.9L371.1,392.6z M81.9,394c-20,0-40.2-7.1-56-21.2
		l17.2-20.5c11.8,9.9,24.2,16,39.3,16c11.8,0,19.1-4.7,19.1-12.5v-0.5c0-7.3-4.5-11.1-26.6-16.7c-26.6-6.8-43.8-14.1-43.8-40.2V298
		c0-24,19.3-39.8,46.1-39.8c19.3,0,35.5,6.1,48.9,16.7l-15.1,21.9c-11.8-8-23.3-12.9-34.4-12.9c-11.1,0-16.9,5.2-16.9,11.5v0.2
		c0,8.7,5.6,11.5,28.5,17.4c26.8,7.1,41.9,16.7,41.9,39.5v0.5C130.4,379.2,110.4,394,81.9,394L81.9,394z M194.4,352.4h-22.1v39.8
		h-28.9v-132h53.9c31.5,0,50.6,18.6,50.6,45.6v0.5C247.6,336.6,224.1,352.4,194.4,352.4z M218.2,306.2c0-12.9-8.9-20-23.5-20h-22.4
		v40.2h23.1c14.6,0,23.1-8.7,23.1-20v-0.2C218.4,306.2,218.2,306.2,218.2,306.2z M431.4,394.2c-38.8,0-67.8-29.9-67.8-67.8V326
		c0-37.4,28.2-68.2,68.7-68.2c24.9,0,39.8,8.2,52,20.5L466,299.6c-10.1-9.2-20.5-14.8-33.6-14.8c-22.4,0-38.4,18.6-38.4,41.2v0.5
		c0,22.6,15.8,41.4,38.4,41.4c15.1,0,24.2-6.1,34.6-15.5l18.3,18.6C472.1,385.3,456.8,394.2,431.4,394.2L431.4,394.2z M500.5,392.1
		v-132h78.8V286h-50.1v26.8h41.6v25.9h-41.6v27.5h51.1v25.9H500.5z M594.7,259.6h9.2v9.4h-9.2V259.6z M593.9,289.8
		c0-9.2,7.1-16,16-16c8.7,0,16,6.8,16,16.2c0,5.9-1.9,9.4-5.2,12.2l-5.6-5.4c2.1-1.9,3.3-4,3.3-7.1c0-4.5-3.8-7.5-8.5-7.5
		c-4.7,0-8.5,3.1-8.5,7.8c0,2.8,1.2,4.9,3.3,7.1l-5.2,5.2C596.3,299.4,593.9,295.9,593.9,289.8z M593.9,322.5
		c0-9.6,7.1-16.7,16-16.7c8.9,0,16,7.1,16,16.7c0,9.6-7.1,16.7-16,16.7C601,339.2,593.9,331.9,593.9,322.5z M609.9,330.5
		c4.5,0,8.5-3.3,8.5-8c0-4.9-3.8-8-8.5-8c-4.5,0-8.5,3.3-8.5,8C601.5,327.4,605.2,330.5,609.9,330.5L609.9,330.5z M594.7,383.6h17.2
		c4.2,0,6.4-1.9,6.4-5.2c0-3.3-2.1-5.4-6.4-5.4h-17.2v-8.7h17.2c4.2,0,6.4-1.9,6.4-5.2c0-3.3-2.1-5.2-6.4-5.2h-17.2v-8.7h30.8v8.7
		H621c2.6,2.1,4.9,4.7,4.9,9.2c0,4-1.9,7.1-4.9,8.7c3.1,2.6,4.9,5.9,4.9,10.1c0,6.6-4,10.3-11.3,10.3h-20L594.7,383.6L594.7,383.6z"
		/>
</g>
</svg>
